<svg xmlns="http://www.w3.org/2000/svg" xmlns:xlink="http://www.w3.org/1999/xlink" viewBox="0 0 100 100" version="1.1" x="0px" y="0px"><title>slice-1 copy 18</title><desc>Created with Sketch.</desc><g stroke="none" stroke-width="1" fill="none" fill-rule="evenodd"><path d="M85.2044615,65.6248103 C80.7815929,68.3290295 74.8663778,69.8183499 68.5491847,69.8183499 C62.2317138,69.8183499 56.3167764,68.3290295 51.8939078,65.6248103 C47.7268939,63.0772448 45.4319804,59.7769642 45.4319804,56.3316957 C45.4319804,52.8867049 47.7268939,49.5861465 51.8939078,47.038581 C56.3164986,44.3343618 62.2317138,42.8453192 68.5491847,42.8453192 C74.8666556,42.8453192 80.7815929,44.3343618 85.2044615,47.038581 C89.3714754,49.5864243 91.6663889,52.8867049 91.6663889,56.3316957 C91.6663889,59.7769642 89.3714754,63.0772448 85.2044615,65.6248103 L85.2044615,65.6248103 L85.2044615,65.6248103 Z M91.6663889,65.0581909 C91.6663889,68.5034594 89.3714754,71.80374 85.2044615,74.3513056 C80.7815929,77.0558025 74.8666556,78.5448451 68.5491847,78.5448451 C62.2317138,78.5448451 56.3164986,77.0558025 51.8939078,74.3513056 C47.7268939,71.8040178 45.4319804,68.5034594 45.4319804,65.0581909 L45.4319804,64.5818417 C46.6798622,66.0022789 48.2613829,67.310781 50.1545962,68.4684623 C55.0938967,71.4884885 61.6263855,73.1514055 68.5491847,73.1514055 C75.471706,73.1514055 82.0041948,71.4884885 86.9437731,68.4684623 C88.8369864,67.310781 90.4185071,66.0022789 91.6663889,64.5818417 L91.6663889,65.0581909 L91.6663889,65.0581909 Z M91.6663889,73.9316183 C91.6663889,77.3766091 89.3714754,80.6768897 85.2044615,83.224733 C80.7815929,85.9286744 74.8663778,87.4179947 68.5491847,87.4179947 C62.2317138,87.4179947 56.3167764,85.9286744 51.8939078,83.224733 C47.7268939,80.6768897 45.4319804,77.3766091 45.4319804,73.9316183 L45.4319804,73.4549913 C46.6798622,74.8751508 48.2613829,76.1839307 50.1545962,77.3413342 C55.0938967,80.3613604 61.6263855,82.0242774 68.5491847,82.0242774 C75.471706,82.0242774 82.0041948,80.3613604 86.9437731,77.3413342 C88.8369864,76.1839307 90.4185071,74.8751508 91.6663889,73.4549913 L91.6663889,73.9316183 L91.6663889,73.9316183 Z M42.0983693,55.7770196 L42.0983693,56.368637 C38.8461538,57.3713313 35.2216851,57.9057312 31.4505375,57.9057312 C25.1333444,57.9057312 19.2184071,56.4166886 14.7955385,53.7124694 C10.6285246,51.1646261 8.33361113,47.8643455 8.33361113,44.4193547 L8.33361113,43.9430055 C9.5814929,45.363165 11.1630136,46.6719449 13.0562269,47.8293484 C17.9955274,50.8493746 24.5280162,52.5122916 31.4505375,52.5122916 C35.7478401,52.5122916 39.8940189,51.8704007 43.6026613,50.662168 C42.7075867,52.2823108 42.1858766,54.0021675 42.0983693,55.7770196 L42.0983693,55.7770196 L42.0983693,55.7770196 Z M31.4505375,76.2080953 C25.1333444,76.2080953 19.2184071,74.7187749 14.7955385,72.0145558 C10.6285246,69.4669902 8.33361113,66.1667096 8.33361113,62.7214411 L8.33361113,62.2448141 C9.5814929,63.6652514 11.1630136,64.9737535 13.0562269,66.1314348 C17.9955274,69.151461 24.5280162,70.814378 31.4505375,70.814378 C35.1764036,70.814378 38.7861488,70.3285851 42.0983693,69.4128281 C42.0983693,69.4128281 42.1080923,74.419911 42.123927,74.6629463 C38.8650443,75.6709178 35.2314082,76.2080953 31.4505375,76.2080953 L31.4505375,76.2080953 L31.4505375,76.2080953 Z M8.33361113,53.0939098 C9.5814929,54.5140693 11.1630136,55.8228492 13.0562269,56.9802527 C17.9955274,60.0002789 24.5280162,61.6634737 31.4505375,61.6634737 C35.1764036,61.6634737 38.7861488,61.1774031 42.0983693,60.2619238 L42.0983693,65.5195413 C38.8461538,66.5225133 35.2214073,67.057191 31.4505375,67.057191 C25.1333444,67.057191 19.2184071,65.5675929 14.7955385,62.8636515 C10.6285246,60.3158082 8.33361113,57.0155276 8.33361113,53.5705368 L8.33361113,53.0939098 L8.33361113,53.0939098 Z M8.33361113,35.0698559 C9.5814929,36.4900153 11.1630136,37.7985174 13.0562269,38.9561988 C17.9955274,41.9762249 24.5280162,43.639142 31.4505375,43.639142 C38.3733367,43.639142 44.9058255,41.9762249 49.845126,38.9561988 C51.7383393,37.7985174 53.31986,36.4900153 54.5677418,35.0695781 L54.5677418,35.5462051 C54.5677418,38.9914736 52.2728283,42.2917542 48.1058144,44.8393198 C43.6829458,47.5435389 37.7680084,49.0328593 31.4505375,49.0328593 C25.1333444,49.0328593 19.2184071,47.5435389 14.7955385,44.8393198 C10.6285246,42.2917542 8.33361113,38.9914736 8.33361113,35.5462051 L8.33361113,35.0698559 L8.33361113,35.0698559 Z M14.7955385,17.5265952 C19.2184071,14.822376 25.1333444,13.3330557 31.4505375,13.3330557 C37.7680084,13.3330557 43.6829458,14.822376 48.1058144,17.5265952 C52.2728283,20.0741607 54.5677418,23.3744413 54.5677418,26.8197099 C54.5677418,30.2647006 52.2728283,33.565259 48.1058144,36.1128245 C43.6829458,38.8170437 37.7680084,40.3060863 31.4505375,40.3060863 C25.1333444,40.3060863 19.2184071,38.8170437 14.7955385,36.1128245 C10.6285246,33.565259 8.33361113,30.2647006 8.33361113,26.8197099 C8.33361113,23.3744413 10.6285246,20.0741607 14.7955385,17.5265952 L14.7955385,17.5265952 L14.7955385,17.5265952 Z M86.9437731,44.1952068 C82.0041948,41.1751806 75.471706,39.5122636 68.5491847,39.5122636 C64.8233186,39.5122636 61.2135734,39.9980564 57.9013529,40.9138135 L57.9013529,26.8197099 C57.9013529,22.1695417 55.0402811,17.8593452 49.845126,14.6829432 C44.9058255,11.662917 38.3733367,10 31.4505375,10 C24.5280162,10 17.9955274,11.662917 13.0562269,14.6829432 C8.06831125,17.7324114 5.21835153,21.8276258 5,26.2647561 L5,62.7214411 C5,67.3716093 7.86107176,71.6818057 13.0562269,74.8582078 C17.9955274,77.8779562 24.5280162,79.541151 31.4505375,79.541151 C35.4528155,79.541151 39.3220268,78.9820309 42.8309304,77.9293408 C43.9874156,81.0207499 46.489013,83.826905 50.1545962,86.0681072 C55.0938967,89.0878556 61.6263855,90.7510504 68.5491847,90.7510504 C75.471706,90.7510504 82.0041948,89.0881334 86.9437731,86.0681072 C92.1389282,82.8917052 95,78.5815087 95,73.9316183 L95,56.3316957 C95,51.6815275 92.1389282,47.3716088 86.9437731,44.1952068 L86.9437731,44.1952068 L86.9437731,44.1952068 Z" fill="#000000"></path></g></svg>