<?xml version="1.0" encoding="utf-8"?>
<!-- Generator: Adobe Illustrator 19.2.1, SVG Export Plug-In . SVG Version: 6.00 Build 0)  -->
<svg version="1.1"
	 id="Calque_1" xmlns:cc="http://creativecommons.org/ns#" xmlns:dc="http://purl.org/dc/elements/1.1/" xmlns:inkscape="http://www.inkscape.org/namespaces/inkscape" xmlns:rdf="http://www.w3.org/1999/02/22-rdf-syntax-ns#" xmlns:sodipodi="http://sodipodi.sourceforge.net/DTD/sodipodi-0.dtd" xmlns:svg="http://www.w3.org/2000/svg"
	 xmlns="http://www.w3.org/2000/svg" xmlns:xlink="http://www.w3.org/1999/xlink" x="0px" y="0px" width="32px" height="32px"
	 viewBox="0 0 32 32" style="enable-background:new 0 0 32 32;" xml:space="preserve">
<g transform="translate(0,-952.36218)">
	<path d="M9.3,955.4c-1,0-1.8,0.8-1.8,1.8v23.2c0,1,0.8,1.8,1.8,1.8h13.1c1,0,1.8-0.8,1.8-1.8v-23.2c0-1-0.8-1.8-1.8-1.8H9.3z
		 M9.3,956.6h13.1c0.3,0,0.6,0.3,0.6,0.6v0.6H8.8v-0.6C8.8,956.9,9,956.6,9.3,956.6z M8.8,959H23v18.4H8.8V959z M14.4,963.5
		c-0.3,0-0.6,0.3-0.6,0.6v2.4h-2.4c-0.3,0-0.6,0.3-0.6,0.6v3c0,0.3,0.3,0.6,0.6,0.6h2.4v2.4c0,0.3,0.3,0.6,0.6,0.6h3
		c0.3,0,0.6-0.3,0.6-0.6v-2.4h2.4c0.3,0,0.6-0.3,0.6-0.6v-3c0-0.3-0.3-0.6-0.6-0.6H18v-2.4c0-0.3-0.3-0.6-0.6-0.6H14.4z M15,964.7
		h1.8v3h3v1.8h-3v3H15v-3h-3v-1.8h3V964.7z M8.8,978.6H23v1.8c0,0.3-0.3,0.6-0.6,0.6H9.3c-0.3,0-0.6-0.3-0.6-0.6V978.6z M15.9,979.2
		c-0.3,0-0.6,0.3-0.6,0.6s0.3,0.6,0.6,0.6s0.6-0.3,0.6-0.6S16.2,979.2,15.9,979.2z"/>
</g>
</svg>
