<svg xmlns="http://www.w3.org/2000/svg" xmlns:xlink="http://www.w3.org/1999/xlink" version="1.1" x="0px" y="0px" viewBox="0 0 500 500" enable-background="new 0 0 500 500" xml:space="preserve"><g><path d="M109.984,436.771H43.746c-5.46,0-9.886-4.427-9.886-9.888V249.92c0-5.46,4.426-9.886,9.886-9.886h62.284   c5.46,0,9.886,4.426,9.886,9.886c0,5.459-4.426,9.886-9.886,9.886H53.632v157.192h56.352c5.46,0,9.887,4.427,9.887,9.886   C119.871,432.345,115.444,436.771,109.984,436.771z"></path><path d="M456.004,436.771h-64.261c-5.459,0-9.886-4.427-9.886-9.888c0-5.459,4.427-9.886,9.886-9.886h54.375V259.806h-56.353   c-5.459,0-9.886-4.427-9.886-9.886c0-5.46,4.427-9.886,9.886-9.886h66.238c5.46,0,9.887,4.426,9.887,9.886v176.964   C465.891,432.345,461.464,436.771,456.004,436.771z"></path></g><path d="M383.834,481.259H115.916c-5.46,0-9.886-4.427-9.886-9.886V130.296c0-5.46,4.426-9.887,9.886-9.887h267.918  c5.46,0,9.887,4.426,9.887,9.887v341.077C393.721,476.832,389.294,481.259,383.834,481.259z M125.802,461.486h248.146V140.182  H125.802V461.486z"></path><path d="M420.598,140.182c-0.006,0-0.013,0-0.02,0H79.171c-3.246,0-6.285-1.593-8.131-4.262s-2.265-6.076-1.119-9.112l36.168-95.897  c1.452-3.85,5.136-6.397,9.25-6.397h268.183c4.085,0,7.75,2.512,9.222,6.322l36.828,95.306c0.586,1.263,0.912,2.671,0.912,4.155  C430.484,135.756,426.059,140.182,420.598,140.182z M93.466,120.409H406.16l-29.417-76.124H122.177L93.466,120.409z"></path><g><path d="M107.513,259.806H9.802c-3.379,0-6.524-1.726-8.339-4.577c-1.815-2.85-2.048-6.43-0.618-9.491l30.01-64.262   c1.625-3.479,5.118-5.703,8.958-5.703h66.711c5.46,0,9.886,4.426,9.886,9.886s-4.426,9.886-9.886,9.886H46.107l-20.776,44.489   h82.182c5.46,0,9.886,4.426,9.886,9.886C117.398,255.379,112.973,259.806,107.513,259.806z"></path><path d="M489.948,259.806h-97.711c-5.459,0-9.886-4.427-9.886-9.886c0-5.46,4.427-9.886,9.886-9.886h81.907l-21.641-44.489h-61.255   c-5.46,0-9.887-4.426-9.887-9.886s4.427-9.886,9.887-9.886h67.439c3.783,0,7.234,2.159,8.89,5.562l31.26,64.26   c1.49,3.064,1.298,6.68-0.509,9.569C496.521,258.052,493.355,259.806,489.948,259.806z"></path></g><g><path d="M249.616,297.124c0,0-0.001,0-0.002,0c-5.46-0.001-9.885-4.429-9.884-9.888l0.023-120.115   c0.001-5.459,4.427-9.884,9.886-9.884c0.001,0,0.002,0,0.002,0c5.46,0.001,9.886,4.428,9.885,9.888l-0.023,120.115   C259.502,292.699,255.076,297.124,249.616,297.124z"></path><path d="M309.933,237.079c-0.001,0-0.001,0-0.002,0l-120.114-0.022c-5.46-0.001-9.885-4.429-9.884-9.889   c0.001-5.459,4.427-9.884,9.886-9.884c0,0,0.001,0,0.002,0l120.114,0.023c5.459,0.001,9.885,4.428,9.884,9.888   C319.817,232.654,315.392,237.079,309.933,237.079z"></path></g><g><path d="M193.523,335.931h-34.602c-5.46,0-9.887-4.426-9.887-9.887c0-5.459,4.426-9.886,9.887-9.886h34.602   c5.459,0,9.886,4.427,9.886,9.886C203.41,331.505,198.983,335.931,193.523,335.931z"></path><path d="M267.177,335.931h-34.603c-5.46,0-9.887-4.426-9.887-9.887c0-5.459,4.426-9.886,9.887-9.886h34.603   c5.459,0,9.886,4.427,9.886,9.886C277.063,331.505,272.636,335.931,267.177,335.931z"></path><path d="M340.829,335.931h-34.602c-5.461,0-9.888-4.426-9.888-9.887c0-5.459,4.427-9.886,9.888-9.886h34.602   c5.46,0,9.886,4.427,9.886,9.886C350.715,331.505,346.289,335.931,340.829,335.931z"></path></g><g><path d="M193.523,374.486h-34.602c-5.46,0-9.887-4.426-9.887-9.886c0-5.459,4.426-9.886,9.887-9.886h34.602   c5.459,0,9.886,4.427,9.886,9.886C203.41,370.061,198.983,374.486,193.523,374.486z"></path><path d="M267.177,374.486h-34.603c-5.46,0-9.887-4.426-9.887-9.886c0-5.459,4.426-9.886,9.887-9.886h34.603   c5.459,0,9.886,4.427,9.886,9.886C277.063,370.061,272.636,374.486,267.177,374.486z"></path><path d="M340.829,374.486h-34.602c-5.461,0-9.888-4.426-9.888-9.886c0-5.459,4.427-9.886,9.888-9.886h34.602   c5.46,0,9.886,4.427,9.886,9.886C350.715,370.061,346.289,374.486,340.829,374.486z"></path></g><g><path d="M301.037,414.032H200.156c-5.46,0-9.886-4.426-9.886-9.887c0-5.459,4.426-9.886,9.886-9.886h100.881   c5.459,0,9.886,4.427,9.886,9.886C310.923,409.606,306.496,414.032,301.037,414.032z"></path><path d="M198.714,481.259c-5.46,0-9.886-4.427-9.886-9.886v-66.897c0-5.46,4.426-9.887,9.886-9.887c5.46,0,9.886,4.427,9.886,9.887   v66.897C208.6,476.832,204.174,481.259,198.714,481.259z"></path><path d="M301.037,480.93c-5.46,0-9.887-4.426-9.887-9.886v-66.898c0-5.459,4.427-9.886,9.887-9.886   c5.459,0,9.886,4.427,9.886,9.886v66.898C310.923,476.504,306.496,480.93,301.037,480.93z"></path></g></svg>