<svg xmlns="http://www.w3.org/2000/svg" xmlns:xlink="http://www.w3.org/1999/xlink" version="1.1" x="0px" y="0px" viewBox="0 0 100 100" enable-background="new 0 0 100 100" xml:space="preserve"><path d="M51.598,13.015V9c0-0.829-0.672-1.5-1.5-1.5s-1.5,0.671-1.5,1.5v4.01C27.162,13.706,9.82,30.273,8.6,51.117  c-0.039,0.688,0.396,1.316,1.053,1.52c0.658,0.204,1.373-0.068,1.729-0.657c2.053-3.394,5.834-5.691,10.193-5.69  c4.844-0.001,8.984,2.833,10.813,6.854c0.244,0.535,0.779,0.879,1.367,0.879s1.123-0.345,1.365-0.881  c2.336-5.155,7.426-8.885,13.479-9.388V50.4V82c0,2.076-0.838,3.941-2.197,5.303c-1.361,1.359-3.227,2.196-5.303,2.197  c-2.076-0.001-3.941-0.837-5.303-2.197c-1.359-1.362-2.197-3.228-2.197-5.303c0-0.829-0.672-1.5-1.5-1.5s-1.5,0.671-1.5,1.5  c0.002,5.799,4.701,10.499,10.5,10.5c5.799-0.001,10.498-4.701,10.5-10.5V50.4v-6.625c5.967,0.567,10.973,4.268,13.285,9.367  c0.242,0.536,0.775,0.88,1.365,0.881c0.588,0,1.121-0.344,1.365-0.879c1.828-4.021,5.969-6.855,10.813-6.854  c4.359,0,8.141,2.296,10.193,5.69c0.355,0.589,1.07,0.861,1.729,0.657c0.656-0.204,1.092-0.833,1.053-1.52  C90.186,30.336,72.943,13.804,51.598,13.015z M21.574,43.29c-3.564,0-6.83,1.24-9.389,3.298  c2.846-14.971,14.83-26.845,30.145-29.863c-0.598,0.626-1.172,1.313-1.719,2.064c-2.445,3.37-4.428,7.96-5.869,13.396  c-1.238,4.684-2.063,10-2.371,15.688C29.666,45.052,25.83,43.291,21.574,43.29z M50,40.691c-5.828,0.001-11.053,2.537-14.588,6.548  c0.539-8.517,2.291-16.086,4.768-21.623c1.4-3.139,3.035-5.615,4.732-7.241c0.848-0.815,1.707-1.417,2.555-1.812  c0.848-0.394,1.682-0.586,2.533-0.587c0.852,0.001,1.686,0.193,2.533,0.587c1.482,0.687,3.006,2.029,4.43,3.99  c2.139,2.936,4.029,7.222,5.395,12.397c1.123,4.243,1.893,9.087,2.223,14.281C61.047,43.226,55.826,40.692,50,40.691z M78.426,43.29  c-4.258,0.001-8.096,1.763-10.801,4.585c-0.496-9.146-2.318-17.322-5.066-23.482c-1.393-3.112-3.021-5.71-4.895-7.669  c15.318,3.016,27.305,14.891,30.15,29.863C85.256,44.53,81.99,43.291,78.426,43.29z"></path></svg>