<svg xmlns:dc="http://purl.org/dc/elements/1.1/" xmlns:cc="http://creativecommons.org/ns#" xmlns:rdf="http://www.w3.org/1999/02/22-rdf-syntax-ns#" xmlns:svg="http://www.w3.org/2000/svg" xmlns="http://www.w3.org/2000/svg" xmlns:sodipodi="http://sodipodi.sourceforge.net/DTD/sodipodi-0.dtd" xmlns:inkscape="http://www.inkscape.org/namespaces/inkscape" viewBox="0 0 32 32.000001" version="1.1" x="0px" y="0px"><g transform="translate(0,-1020.3622)"><g><path transform="translate(0,1020.3622)" d="M 5.5722656 7.0625 A 0.50038491 0.49971534 74.999986 0 0 5.1621094 7.3125 L 4.5332031 8.4042969 L 3.9042969 9.4960938 L 4.7695312 9.9960938 L 5.3984375 8.9042969 L 5.7792969 8.2460938 L 8.1835938 9.6367188 L 3.6484375 17.503906 L 1.2441406 16.113281 L 1.6230469 15.455078 L 2.2519531 14.363281 L 2.8828125 13.269531 L 3.5117188 12.177734 L 4.140625 11.087891 L 3.2753906 10.585938 L 2.6464844 11.677734 L 2.0175781 12.769531 L 1.3867188 13.863281 L 0.7578125 14.953125 L 0.12890625 16.044922 A 0.50038491 0.49971534 74.999986 0 0 0.3125 16.728516 L 3.5820312 18.619141 A 0.50038491 0.49971534 74.999986 0 0 4.2636719 18.4375 L 5.5195312 16.259766 L 7.3886719 17.404297 A 0.50010202 0.50010202 0 0 0 7.4199219 17.421875 C 7.4197393 18.663308 7.9025818 19.867236 8.8027344 20.759766 C 8.7412302 20.871945 8.6891445 20.988409 8.65625 21.111328 C 8.603349 21.309128 8.5873752 21.517609 8.6132812 21.724609 C 8.6391873 21.931609 8.7066832 22.137725 8.8164062 22.328125 C 9.1358085 22.882125 9.7402158 23.053653 10.341797 23.001953 C 10.317167 23.313853 10.296347 23.634728 10.462891 23.923828 C 10.886604 24.659528 11.817748 24.899184 12.566406 24.521484 C 12.583456 24.753584 12.531177 24.989525 12.654297 25.203125 C 13.093186 25.965125 14.081101 26.231116 14.841797 25.791016 L 16.001953 25.119141 L 17.158203 25.789062 C 17.918899 26.229163 18.9068 25.963172 19.345703 25.201172 C 19.468829 24.987572 19.416544 24.751631 19.433594 24.519531 C 20.182248 24.897231 21.113385 24.657575 21.537109 23.921875 C 21.703643 23.632875 21.682835 23.3119 21.658203 23 C 22.259844 23.052 22.864304 22.880472 23.183594 22.326172 C 23.465405 21.837263 23.367649 21.31008 23.105469 20.851562 C 24.069288 19.949491 24.600583 18.701807 24.597656 17.416016 L 26.511719 16.310547 L 27.736328 18.435547 A 0.49971534 0.50038491 15.000014 0 0 28.417969 18.619141 L 31.689453 16.726562 A 0.49971534 0.50038491 15.000014 0 0 31.871094 16.044922 L 31.242188 14.953125 L 30.613281 13.861328 L 29.984375 12.769531 L 29.355469 11.677734 L 28.726562 10.587891 L 27.861328 11.087891 L 28.490234 12.179688 L 29.119141 13.269531 L 29.748047 14.361328 L 30.376953 15.453125 L 30.755859 16.111328 L 28.351562 17.501953 L 23.818359 9.6347656 L 26.222656 8.2441406 L 26.601562 8.9023438 L 27.230469 9.9941406 L 28.095703 9.4941406 L 27.466797 8.4023438 L 26.837891 7.3105469 A 0.49971534 0.50038491 15.000014 0 0 26.154297 7.1289062 L 22.884766 9.0195312 A 0.49971534 0.50038491 15.000014 0 0 22.701172 9.703125 L 22.863281 9.984375 L 20.939453 11.097656 C 20.846707 11.044114 20.757959 10.982514 20.662109 10.935547 C 19.847323 10.536297 18.92675 10.376881 18.017578 10.488281 C 17.714521 10.525281 17.41163 10.590866 17.115234 10.689453 C 16.818839 10.788041 16.528938 10.919581 16.248047 11.082031 A 0.50005 0.50005 0 0 0 16.246094 11.082031 L 16.119141 11.15625 L 16 11.224609 L 15.740234 11.083984 C 15.173696 10.775584 14.570789 10.588178 13.964844 10.517578 L 13.964844 10.509766 C 12.955233 10.392134 11.94312 10.605348 11.070312 11.099609 A 0.5001022 0.5001022 0 0 0 11.056641 11.091797 L 9.1640625 9.9355469 L 9.2988281 9.703125 A 0.50038491 0.49971534 74.999986 0 0 9.1152344 9.0195312 L 5.8457031 7.1289062 A 0.50038491 0.49971534 74.999986 0 0 5.5722656 7.0625 z M 8.6660156 10.802734 L 10.189453 11.734375 C 9.8587188 12.043098 9.5655531 12.405054 9.3261719 12.820312 L 8.0332031 15.0625 C 7.7992539 15.468352 7.6545348 15.896615 7.5507812 16.330078 L 6.0175781 15.394531 L 8.6660156 10.802734 z M 23.363281 10.851562 L 26.011719 15.443359 L 24.457031 16.341797 C 24.360585 15.935138 24.218329 15.535716 24.007812 15.152344 A 0.50005 0.50005 0 0 0 23.966797 15.0625 L 22.673828 12.820312 C 22.437784 12.410853 22.148847 12.050836 21.822266 11.742188 L 23.363281 10.851562 z M 18.859375 11.455078 C 19.496879 11.500582 20.107996 11.726733 20.644531 12.087891 C 20.644531 12.087891 20.646484 12.087891 20.646484 12.087891 A 0.50013195 0.50013195 0 0 0 20.701172 12.121094 C 21.137802 12.426465 21.522119 12.823381 21.808594 13.320312 L 23.099609 15.560547 C 23.38702 16.059113 23.533715 16.591508 23.578125 17.125 A 0.50005024 0.50005024 0 0 0 23.587891 17.246094 C 23.604233 17.570706 23.582727 17.893113 23.515625 18.207031 C 23.410895 18.094473 23.293601 17.992691 23.154297 17.912109 L 18.78125 15.382812 C 18.811071 15.071268 18.753596 14.750236 18.609375 14.455078 A 0.50005 0.50005 0 0 0 18.552734 14.328125 C 18.552734 14.328125 18.552734 14.326172 18.552734 14.326172 C 18.491719 14.220327 18.420422 14.122405 18.341797 14.035156 C 18.025623 13.684955 17.580052 13.488883 17.117188 13.464844 C 17.002187 13.458832 16.883112 13.462735 16.767578 13.478516 C 16.535625 13.510665 16.305505 13.587344 16.091797 13.710938 A 0.50005 0.50005 0 0 0 16.072266 13.724609 L 13.664062 15.117188 A 0.50005 0.50005 0 0 0 13.570312 15.179688 L 13.527344 15.205078 C 13.387341 15.286028 13.241015 15.334328 13.091797 15.351562 C 12.644129 15.402816 12.172662 15.186841 11.785156 14.822266 L 13.238281 13.980469 L 16.273438 12.224609 A 0.50005 0.50005 0 0 0 16.275391 12.224609 L 16.748047 11.947266 C 17.415563 11.561241 18.149275 11.404392 18.859375 11.455078 z M 13.130859 11.484375 C 13.73728 11.442973 14.360366 11.565578 14.955078 11.828125 L 14.230469 12.248047 A 0.5005087 0.5005087 0 0 0 14.173828 12.283203 L 12.736328 13.113281 L 10.693359 14.298828 A 0.50005 0.50005 0 0 0 10.576172 14.394531 A 0.50005 0.50005 0 0 0 10.494141 14.517578 A 0.50005 0.50005 0 0 0 10.474609 14.5625 A 0.50005 0.50005 0 0 0 10.474609 14.564453 A 0.50005 0.50005 0 0 0 10.496094 14.953125 A 0.50005 0.50005 0 0 0 10.511719 14.980469 A 0.50005 0.50005 0 0 0 10.511719 14.982422 C 11.242916 16.250922 12.811797 16.775066 14.027344 16.072266 L 16.412109 14.693359 A 0.50005 0.50005 0 0 0 16.431641 14.679688 L 16.455078 14.666016 A 0.50005 0.50005 0 0 0 16.496094 14.636719 L 16.5625 14.595703 L 16.591797 14.578125 C 16.695147 14.51835 16.802486 14.481036 16.908203 14.464844 C 17.119637 14.432459 17.325818 14.483222 17.486328 14.601562 C 17.523706 14.62912 17.548154 14.672352 17.580078 14.707031 A 0.50005 0.50005 0 0 0 17.441406 14.695312 A 0.50005 0.50005 0 0 0 17.228516 15.630859 L 17.363281 15.708984 A 0.50005 0.50005 0 0 0 17.443359 15.763672 L 17.919922 16.039062 A 0.50005 0.50005 0 0 0 18.029297 16.101562 L 22.654297 18.777344 C 22.950418 18.948644 23.046178 19.304662 22.875 19.601562 C 22.703922 19.897962 22.348427 19.993266 22.052734 19.822266 L 16.875 16.828125 L 16.330078 16.513672 A 0.50005 0.50005 0 0 0 15.830078 17.378906 L 16.375 17.693359 L 21.552734 20.6875 L 21.554688 20.6875 L 22.097656 21.001953 C 22.393667 21.173153 22.489528 21.529172 22.318359 21.826172 A 0.50005 0.50005 0 0 0 22.316406 21.826172 C 22.14521 22.123372 21.79227 22.218075 21.496094 22.046875 L 20.951172 21.732422 L 15.773438 18.738281 L 15.228516 18.423828 A 0.50005 0.50005 0 0 0 14.728516 19.289062 L 15.273438 19.603516 L 20.451172 22.597656 C 20.747109 22.768756 20.843137 23.124575 20.671875 23.421875 C 20.501028 23.718475 20.147379 23.812278 19.851562 23.642578 L 18.759766 23.011719 L 14.128906 20.333984 L 13.037109 19.703125 A 0.50005 0.50005 0 0 0 12.537109 20.568359 L 13.626953 21.199219 L 14.759766 21.853516 L 18.259766 23.878906 C 18.555786 24.050106 18.651633 24.406225 18.480469 24.703125 C 18.309232 25.000425 17.954389 25.093175 17.658203 24.921875 L 12.271484 21.808594 L 12.267578 21.808594 A 0.50005 0.50005 0 0 0 12.261719 21.808594 L 11.935547 21.619141 A 0.50005 0.50005 0 0 0 11.929688 21.619141 L 10.244141 20.644531 C 8.4641009 19.615231 7.8658429 17.362959 8.9003906 15.568359 L 10.191406 13.328125 C 10.837964 12.206563 11.946419 11.565239 13.130859 11.484375 z M 3.1542969 14.972656 A 0.62932082 0.63029461 0 0 0 2.5957031 15.289062 A 0.62932082 0.63029461 0 0 0 2.8261719 16.148438 A 0.62932082 0.63029461 0 0 0 3.6855469 15.917969 A 0.62932082 0.63029461 0 0 0 3.4550781 15.056641 A 0.62932082 0.63029461 0 0 0 3.1542969 14.972656 z M 28.845703 14.972656 A 0.62932082 0.63029461 0 0 0 28.544922 15.056641 A 0.62932082 0.63029461 0 0 0 28.314453 15.917969 A 0.62932082 0.63029461 0 0 0 29.173828 16.148438 A 0.62932082 0.63029461 0 0 0 29.404297 15.289062 A 0.62932082 0.63029461 0 0 0 28.845703 14.972656 z M 9.6191406 21.410156 C 9.6636426 21.437897 9.6984058 21.475505 9.7441406 21.501953 L 10.595703 21.996094 L 10.503906 22.048828 C 10.20773 22.220028 9.8549902 22.125825 9.6835938 21.828125 C 9.6407877 21.754125 9.6151548 21.678962 9.6054688 21.601562 C 9.5974192 21.537598 9.606683 21.473189 9.6191406 21.410156 z M 11.587891 22.572266 L 11.761719 22.671875 A 0.50005 0.50005 0 0 0 11.769531 22.671875 L 12.800781 23.267578 L 12.150391 23.644531 C 11.854174 23.815731 11.499335 23.720528 11.328125 23.423828 C 11.156858 23.126528 11.252885 22.770709 11.548828 22.599609 A 0.50005 0.50005 0 0 0 11.587891 22.572266 z M 13.794922 23.84375 L 15.001953 24.542969 L 14.341797 24.923828 C 14.045611 25.095128 13.690756 25.002878 13.519531 24.705078 C 13.348366 24.408178 13.444221 24.052059 13.740234 23.880859 A 0.5005087 0.5005087 0 0 0 13.794922 23.84375 z " style="color:#000000;font-style:normal;font-variant:normal;font-weight:normal;font-stretch:normal;font-size:medium;line-height:normal;font-family:sans-serif;text-indent:0;text-align:start;text-decoration:none;text-decoration-line:none;text-decoration-style:solid;text-decoration-color:#000000;letter-spacing:normal;word-spacing:normal;text-transform:none;direction:ltr;block-progression:tb;writing-mode:lr-tb;baseline-shift:baseline;text-anchor:start;white-space:normal;clip-rule:nonzero;display:inline;overflow:visible;visibility:visible;opacity:1;isolation:auto;mix-blend-mode:normal;color-interpolation:sRGB;color-interpolation-filters:linearRGB;solid-color:#000000;solid-opacity:1;fill:#000000;fill-opacity:1;fill-rule:nonzero;stroke:none;stroke-width:1.00000048;stroke-linecap:round;stroke-linejoin:round;stroke-miterlimit:4;stroke-dasharray:none;stroke-dashoffset:0.34999999;stroke-opacity:1;color-rendering:auto;image-rendering:auto;shape-rendering:auto;text-rendering:auto;enable-background:accumulate"></path></g></g></svg>