<svg xmlns="http://www.w3.org/2000/svg" xmlns:xlink="http://www.w3.org/1999/xlink" version="1.1" x="0px" y="0px" viewBox="0 0 100 100" enable-background="new 0 0 100 100" xml:space="preserve"><path d="M78.563,49.009c-0.93,0-1.674,0.745-1.674,1.675v0.952v17.189c0,2.513-6.512,9.863-26.423,9.863  c-19.538,0-26.423-8.095-26.423-9.863V51.636v-0.952c0-0.93-0.744-1.675-1.674-1.675c-0.931,0-1.674,0.745-1.674,1.675v0.952V68.92  v0.952c0,4.652,9.954,13.117,29.771,13.117c20.468,0,29.772-7.722,29.772-13.212v-0.952V51.636v-0.952  C80.238,49.754,79.494,49.009,78.563,49.009z"></path><path d="M49.536,59.878c-0.257,0-0.515-0.053-0.755-0.16l-42.5-18.87c-0.672-0.299-1.106-0.966-1.106-1.701  c0-0.736,0.434-1.403,1.106-1.7l42.5-18.871c0.48-0.213,1.03-0.213,1.511,0l42.5,18.871c0.673,0.297,1.105,0.964,1.107,1.7  c0,0.734-0.433,1.401-1.105,1.7l-17,7.565c-0.938,0.418-2.037-0.004-2.456-0.943c-0.417-0.938,0.005-2.039,0.943-2.457l13.176-5.864  L49.536,22.314L11.62,39.147l37.911,16.832l13.865-6.237c0.937-0.423,2.039-0.004,2.461,0.934c0.42,0.937,0.003,2.038-0.935,2.459  l-14.624,6.579C50.056,59.823,49.796,59.878,49.536,59.878z"></path><path d="M75.157,67.596l-3.692-7.431c0.014-0.088,0.027-0.177,0.027-0.27V47.902c0-0.734-0.433-1.401-1.104-1.7l-20.934-9.313  c-0.939-0.417-2.04,0.004-2.457,0.944c-0.417,0.938,0.005,2.038,0.943,2.456l19.831,8.822v10.784c0,0.099,0.014,0.195,0.029,0.29  l-3.443,7.459c-0.266,0.577-0.22,1.248,0.122,1.783c0.342,0.535,0.933,0.858,1.567,0.858h7.443c0.644,0,1.243-0.333,1.582-0.88  C75.411,68.857,75.443,68.173,75.157,67.596z M68.025,66.563l1.668-2.531l1.727,2.531H68.025z"></path></svg>