<svg xmlns="http://www.w3.org/2000/svg" xmlns:xlink="http://www.w3.org/1999/xlink" version="1.1" x="0px" y="0px" viewBox="0 0 100 100" enable-background="new 0 0 100 100" xml:space="preserve"><g><path d="M85.165,9.46c-11.796-3.015-23.693-4.542-35.36-4.542c-11.668,0-23.437,1.528-34.977,4.544l-0.928,0.242v45.231   c0,6.926,2.396,13.005,7.121,18.067c8.083,8.662,17.635,15.989,28.391,21.779l0.557,0.3l0.57-0.273   c10.75-5.166,20.453-12.545,28.836-21.938c4.525-5.069,6.726-10.837,6.726-17.634V9.698L85.165,9.46z M83.615,55.237   c0,6.158-1.992,11.385-6.093,15.98c-8.016,8.978-17.263,16.065-27.491,21.073c-10.29-5.611-19.436-12.669-27.195-20.982   c-4.342-4.652-6.453-10.007-6.453-16.373v-43.31c11.038-2.802,22.276-4.224,33.42-4.224c11.151,0,22.521,1.423,33.811,4.229V55.237   z"></path><path d="M29.729,65.851c-3.221-3.452-4.787-7.424-4.787-12.144V27.15h-2.485v26.557c0,5.304,1.835,9.959,5.455,13.838   c6.122,6.56,13.354,12.108,21.498,16.491l0.557,0.299l0.57-0.273c2.777-1.334,5.443-2.898,8.023-4.626l-1.786-1.786   c-2.179,1.436-4.42,2.752-6.744,3.896C42.354,77.34,35.527,72.062,29.729,65.851z"></path></g></svg>